<?xml version="1.0" encoding="utf-8"?>
<!-- Generator: Adobe Illustrator 27.4.0, SVG Export Plug-In . SVG Version: 6.00 Build 0)  -->
<svg version="1.1" id="Layer_1" xmlns="http://www.w3.org/2000/svg" xmlns:xlink="http://www.w3.org/1999/xlink" x="0px" y="0px"
	 viewBox="0 0 173.5 55.1" style="enable-background:new 0 0 173.5 55.1;" xml:space="preserve">
<style type="text/css">
	.st0{fill:#F8CA10;}
	.st1{fill:#D5AF29;}
	.st2{fill:#FFFFFF;}
</style>
<g>
	<path class="st0" d="M168,0.1H5.5C2.5,0.1,0,2.5,0,5.6v43.9c0,3,2.5,5.5,5.5,5.5H168c3,0,5.5-2.5,5.5-5.5V5.6
		C173.5,2.5,171.1,0.1,168,0.1z"/>
	<path class="st1" d="M5.5,0.1C2.5,0.1,0,2.5,0,5.6v43.9c0,3,2.5,5.5,5.5,5.5h44.3V0.1H5.5z"/>
	<g>
		<path class="st2" d="M73.7,34.4c-1.1,0-2.1-0.2-3.1-0.6c-0.9-0.4-1.8-0.9-2.5-1.6c-0.7-0.7-1.3-1.5-1.7-2.4
			c-0.4-0.9-0.6-1.9-0.6-3s0.2-2.1,0.6-3c0.4-0.9,0.9-1.7,1.7-2.4c0.7-0.7,1.5-1.2,2.5-1.6c0.9-0.4,2-0.6,3.1-0.6
			c1.2,0,2.2,0.2,3.1,0.6s1.7,0.9,2.4,1.6L77,23.5c-0.4-0.4-0.8-0.7-1.4-1s-1.2-0.4-1.9-0.4c-0.6,0-1.2,0.1-1.8,0.3
			c-0.5,0.2-1,0.5-1.4,0.9c-0.4,0.4-0.7,0.9-0.9,1.5s-0.3,1.2-0.3,1.9c0,0.7,0.1,1.3,0.3,1.9s0.5,1.1,0.9,1.5s0.9,0.7,1.4,0.9
			c0.5,0.2,1.1,0.3,1.8,0.3c0.8,0,1.4-0.1,2-0.3c0.6-0.2,1-0.6,1.4-1l2.2,2.2c-0.7,0.7-1.5,1.2-2.4,1.6C76,34.2,74.9,34.4,73.7,34.4
			z"/>
		<path class="st2" d="M79.7,34.2l5.9-14.8h3l5.8,14.8h-3.5l-4.4-12.3h1.2l-4.5,12.3H79.7z M83.1,31.5v-2.7h8.1v2.7H83.1z"/>
		<path class="st2" d="M95.9,34.2V19.3h3.3v14.8H95.9z M98.5,28.1v-2.5h3.1c0.6,0,1.1-0.2,1.5-0.5c0.4-0.3,0.5-0.8,0.5-1.3
			c0-0.5-0.2-1-0.5-1.3c-0.4-0.4-0.9-0.5-1.5-0.5h-3.2v-2.6h3.5c1,0,1.9,0.2,2.6,0.6c0.7,0.4,1.3,0.9,1.7,1.5s0.6,1.4,0.6,2.2
			c0,0.9-0.2,1.7-0.6,2.3c-0.4,0.7-1,1.2-1.8,1.5s-1.6,0.5-2.7,0.5H98.5z M104,34.2l-4.6-6.4l3-0.8l5.5,7.2H104z"/>
		<path class="st2" d="M109.4,34.2V19.3h3.3v14.8H109.4z M111.9,22.2v-2.9h8v2.9H111.9z M111.9,28v-2.8h7.4V28H111.9z M111.9,34.2
			v-2.9h8.2v2.9H111.9z"/>
		<path class="st2" d="M122.3,34.2V19.3h3.3v14.8H122.3z M124.8,22.2v-2.9h8v2.9H124.8z M124.8,28v-2.8h7.4V28H124.8z M124.8,34.2
			v-2.9h8.2v2.9H124.8z"/>
		<path class="st2" d="M135.2,34.2V19.3h3.3v14.8H135.2z M137.8,28.1v-2.5h3.1c0.6,0,1.1-0.2,1.5-0.5c0.4-0.3,0.5-0.8,0.5-1.3
			c0-0.5-0.2-1-0.5-1.3c-0.4-0.4-0.9-0.5-1.5-0.5h-3.2v-2.6h3.5c1,0,1.9,0.2,2.6,0.6c0.7,0.4,1.3,0.9,1.7,1.5s0.6,1.4,0.6,2.2
			c0,0.9-0.2,1.7-0.6,2.3c-0.4,0.7-1,1.2-1.8,1.5s-1.6,0.5-2.7,0.5H137.8z M143.3,34.2l-4.6-6.4l3-0.8l5.5,7.2H143.3z"/>
		<path class="st2" d="M152.7,34.4c-1.2,0-2.3-0.2-3.2-0.6c-0.9-0.4-1.7-1-2.4-1.8l2.1-2.1c0.5,0.5,1,1,1.6,1.3
			c0.6,0.3,1.3,0.5,2,0.5c0.7,0,1.2-0.1,1.6-0.4c0.4-0.3,0.6-0.6,0.6-1.1c0-0.4-0.1-0.7-0.4-1c-0.2-0.3-0.6-0.5-1-0.7
			c-0.4-0.2-0.9-0.4-1.4-0.5c-0.5-0.2-1-0.4-1.5-0.6c-0.5-0.2-1-0.5-1.4-0.8c-0.4-0.3-0.7-0.7-1-1.2c-0.3-0.5-0.4-1.1-0.4-1.9
			c0-0.9,0.2-1.7,0.7-2.4c0.4-0.7,1.1-1.2,1.9-1.5c0.8-0.3,1.7-0.5,2.7-0.5c1.1,0,2,0.2,2.9,0.5c0.9,0.4,1.6,0.9,2.1,1.5l-2.2,2.2
			c-0.4-0.5-0.9-0.8-1.4-1c-0.5-0.2-1-0.3-1.5-0.3c-0.6,0-1,0.1-1.4,0.3c-0.3,0.2-0.5,0.5-0.5,0.9c0,0.4,0.1,0.7,0.4,0.9
			c0.3,0.2,0.6,0.4,1,0.6c0.4,0.2,0.9,0.3,1.4,0.5c0.5,0.2,1,0.4,1.5,0.6c0.5,0.2,0.9,0.5,1.4,0.9c0.4,0.4,0.7,0.8,1,1.3
			c0.3,0.5,0.4,1.2,0.4,2c0,1.4-0.5,2.5-1.5,3.3C155.9,34,154.5,34.4,152.7,34.4z"/>
	</g>
	<g id="g2820" transform="matrix(1.3333333,0,0,-1.3333333,0,682.66667)">
		<g id="g2822" transform="translate(128.7134,357.5527)">
			<g id="path2824">
				<path class="st2" d="M-116.8,138.5c-0.3,0-0.5,0.2-0.5,0.5s0.2,0.5,0.5,0.5h0c0.3,0,0.5-0.2,0.5-0.5S-116.5,138.5-116.8,138.5z"
					/>
			</g>
		</g>
		<g id="g2826">
			<g>
				<g id="g2828">
					<g id="g2834" transform="translate(270.2529,498.0596)">
						<g id="path2836">
							<path class="st2" d="M-251.8-19.8c-0.3,0-0.7,0.1-1,0.3l-2.1,1.2l-2.5,0c-0.7,0-1.4,0.4-1.7,1l-1.2,2.1l-2.1,1.2
								c-0.6,0.3-1,1-1,1.7l0,2.5l-1.2,2.1c-0.4,0.6-0.3,1.4,0,2l1.2,2.1l0,2.5c0,0.7,0.4,1.4,1,1.7l2.1,1.2l1.2,2.1
								c0.3,0.6,1,1,1.7,1l2.5,0l2.1,1.2c0.6,0.4,1.4,0.3,2,0l2.1-1.2l2.5,0c0.7,0,1.4-0.4,1.7-1l1.2-2.1l2.1-1.2c0.6-0.3,1-1,1-1.7
								l0-2.5l1.2-2.1c0.4-0.6,0.3-1.4,0-2l-1.2-2.1l0-2.5c0-0.7-0.4-1.4-1-1.7l-2.1-1.2l-1.2-2.1c-0.3-0.6-1-1-1.7-1l-2.5,0
								l-2.1-1.2C-251.1-19.7-251.4-19.8-251.8-19.8z M-254.8-17.3c0.1,0,0.2,0,0.3-0.1l2.2-1.3c0,0,0,0,0,0c0.3-0.2,0.6-0.2,0.9,0
								l2.3,1.3c0.1,0,0.2,0.1,0.3,0.1c0,0,0,0,0,0l2.6,0c0.3,0,0.6,0.2,0.8,0.5l1.3,2.3c0,0.1,0.1,0.1,0.2,0.2l2.2,1.3c0,0,0,0,0,0
								c0.3,0.2,0.5,0.5,0.5,0.8l0,2.6c0,0.1,0,0.2,0.1,0.3l1.3,2.2c0,0,0,0,0,0c0.2,0.3,0.2,0.6,0,0.9l-1.3,2.3
								c0,0.1-0.1,0.2-0.1,0.3l0,2.6c0,0.3-0.2,0.6-0.5,0.8l-2.3,1.3c-0.1,0-0.1,0.1-0.2,0.2l-1.3,2.2c0,0,0,0,0,0
								c-0.2,0.3-0.5,0.5-0.8,0.5l-2.6,0c0,0,0,0,0,0c-0.1,0-0.2,0-0.3,0.1l-2.2,1.3c0,0,0,0,0,0c-0.3,0.2-0.6,0.2-0.9,0l-2.3-1.3
								c-0.1,0-0.2-0.1-0.3-0.1l-2.6,0c-0.3,0-0.6-0.2-0.8-0.5l-1.3-2.3c0-0.1-0.1-0.1-0.2-0.2l-2.2-1.3c0,0,0,0,0,0
								c-0.3-0.2-0.5-0.5-0.5-0.8l0-2.6c0-0.1,0-0.2-0.1-0.3l-1.3-2.2c0,0,0,0,0,0c-0.2-0.3-0.2-0.6,0-0.9l1.3-2.3
								c0-0.1,0.1-0.2,0.1-0.3l0-2.6c0-0.3,0.2-0.6,0.5-0.8l2.3-1.3c0.1,0,0.1-0.1,0.2-0.2l1.3-2.2c0,0,0,0,0,0
								c0.2-0.3,0.5-0.5,0.8-0.5L-254.8-17.3C-254.8-17.3-254.8-17.3-254.8-17.3z"/>
						</g>
					</g>
					<g id="g2838" transform="translate(257.6875,101.3066)">
						<g id="path2840">
							<path class="st2" d="M-238,380.9c-0.4,0-0.9,0.2-1.2,0.5l-0.3,0.3c-0.2,0.2-0.2,0.5,0,0.7s0.5,0.2,0.7,0l0.3-0.3
								c0.1-0.1,0.3-0.2,0.5-0.2c0.2,0,0.3,0.1,0.5,0.2c0.2,0.2,0.2,0.7,0,0.9c-0.1,0.1-0.2,0.2-0.2,0.4c0,0.1,0.1,0.3,0.2,0.4
								c0.2,0.2,0.5,0.2,0.7,0c0.1-0.1,0.3-0.2,0.5-0.2c0.2,0,0.3,0.1,0.5,0.2c0.2,0.2,0.2,0.7,0,0.9c-0.1,0.1-0.2,0.2-0.2,0.4
								c0,0.1,0.1,0.3,0.2,0.4c0.2,0.2,0.5,0.2,0.7,0c0.1-0.1,0.3-0.2,0.5-0.2c0.2,0,0.3,0.1,0.5,0.2c0.1,0.1,0.2,0.3,0.2,0.5
								c0,0.2-0.1,0.3-0.2,0.5c-0.1,0.1-0.2,0.2-0.2,0.4c0,0.1,0.1,0.3,0.2,0.4c0.2,0.2,0.5,0.2,0.7,0c0.2-0.2,0.7-0.2,0.9,0
								c0.1,0.1,0.2,0.3,0.2,0.5c0,0.2-0.1,0.3-0.2,0.5l-5,5l-1.5-1.5c-0.3-0.3-0.7-0.5-1.2-0.5s-0.9,0.2-1.2,0.5
								c-0.3,0.3-0.5,0.7-0.5,1.2c0,0.4,0.2,0.9,0.5,1.2l1.5,1.5c-1,0.8-2.4,1.1-3.6,0.7c-0.3-0.1-0.6,0.1-0.6,0.4
								c-0.1,0.3,0.1,0.6,0.4,0.6c1.6,0.5,3.4,0.1,4.7-1c0.9,0.8,2.1,1.2,3.3,1.2c0,0,0,0,0,0c1.4,0,2.7-0.5,3.6-1.5
								c1.9-1.9,2-4.9,0.3-6.9l0.1-0.1c0.3-0.3,0.5-0.7,0.5-1.2c0-0.4-0.2-0.9-0.5-1.2c-0.3-0.3-0.7-0.5-1.1-0.5
								c0-0.4-0.2-0.8-0.5-1.1c-0.3-0.3-0.7-0.5-1.1-0.5c0-0.4-0.2-0.8-0.5-1.1c-0.3-0.3-0.7-0.5-1.1-0.5c0-0.4-0.2-0.8-0.5-1.1
								C-237.1,381.1-237.5,380.9-238,380.9z M-237.6,394.1c0.1,0,0.3-0.1,0.4-0.2l4.5-4.5c1.2,1.6,1.1,3.9-0.3,5.4
								c-0.8,0.8-1.8,1.2-2.9,1.2c-1.1,0-2.1-0.4-2.9-1.2c0,0,0,0,0,0l-1.9-1.9c-0.1-0.1-0.2-0.3-0.2-0.5c0-0.2,0.1-0.3,0.2-0.5
								c0.1-0.1,0.3-0.2,0.5-0.2c0.2,0,0.3,0.1,0.5,0.2l1.9,1.9C-237.8,394.1-237.7,394.1-237.6,394.1z M-245.8,388.3
								c-0.1,0-0.3,0.1-0.4,0.2c-1.3,1.3-1.8,3.2-1.3,5c0.1,0.3,0.4,0.4,0.6,0.4c0.3-0.1,0.4-0.4,0.4-0.6c-0.4-1.4,0-3,1-4
								c0.2-0.2,0.2-0.5,0-0.7C-245.5,388.3-245.6,388.3-245.8,388.3z"/>
						</g>
					</g>
					<g id="g2842" transform="translate(184.1265,253.8604)">
						<g id="path2844">
							<path class="st2" d="M-166.5,228.7c-0.4,0-0.9,0.2-1.2,0.5c-0.3,0.3-0.5,0.7-0.5,1.1c-0.4,0-0.8,0.2-1.1,0.5
								c-0.3,0.3-0.5,0.7-0.5,1.1c-0.4,0-0.8,0.2-1.1,0.5c-0.3,0.3-0.5,0.7-0.5,1.1c-0.4,0-0.8,0.2-1.1,0.5
								c-0.3,0.3-0.5,0.7-0.5,1.2c0,0.4,0.2,0.9,0.5,1.2l1.3,1.3c0.6,0.6,1.7,0.6,2.4,0c0,0,0,0,0,0c0.3-0.3,0.5-0.7,0.5-1.1
								c0.4,0,0.8-0.2,1.1-0.5c0.3-0.3,0.5-0.7,0.5-1.1c0.4,0,0.8-0.2,1.1-0.5c0.3-0.3,0.5-0.7,0.5-1.1c0.4,0,0.8-0.2,1.1-0.5
								c0.6-0.6,0.6-1.7,0-2.4l-1.3-1.3C-165.7,228.9-166.1,228.7-166.5,228.7z M-166.8,231.2c0-0.1-0.1-0.3-0.2-0.4
								c-0.2-0.2-0.2-0.7,0-0.9c0.2-0.2,0.7-0.2,0.9,0l1.3,1.3c0.2,0.2,0.2,0.7,0,0.9c-0.2,0.2-0.7,0.2-0.9,0
								c-0.2-0.2-0.5-0.2-0.7,0c-0.1,0.1-0.2,0.2-0.2,0.4s0.1,0.3,0.2,0.4c0.2,0.2,0.2,0.7,0,0.9c-0.1,0.1-0.3,0.2-0.5,0.2
								c-0.2,0-0.3-0.1-0.5-0.2c-0.2-0.2-0.5-0.2-0.7,0c-0.1,0.1-0.2,0.2-0.2,0.4c0,0.1,0.1,0.3,0.2,0.4c0.2,0.2,0.2,0.7,0,0.9
								c-0.2,0.2-0.7,0.2-0.9,0c-0.2-0.2-0.5-0.2-0.7,0c-0.1,0.1-0.2,0.2-0.2,0.4c0,0.1,0.1,0.3,0.2,0.4c0.2,0.2,0.2,0.7,0,0.9
								c-0.2,0.2-0.7,0.2-0.9,0l-1.3-1.3c-0.1-0.1-0.2-0.3-0.2-0.5c0-0.2,0.1-0.3,0.2-0.5c0.1-0.1,0.3-0.2,0.5-0.2
								c0.2,0,0.3,0.1,0.5,0.2c0.2,0.2,0.5,0.2,0.7,0c0.1-0.1,0.2-0.2,0.2-0.4c0-0.1-0.1-0.3-0.2-0.4c-0.2-0.2-0.2-0.7,0-0.9
								c0.1-0.1,0.3-0.2,0.5-0.2c0.2,0,0.3,0.1,0.5,0.2c0.2,0.2,0.5,0.2,0.7,0c0.1-0.1,0.2-0.2,0.2-0.4s-0.1-0.3-0.2-0.4
								c-0.2-0.2-0.2-0.7,0-0.9c0.1-0.1,0.3-0.2,0.5-0.2c0.2,0,0.3,0.1,0.5,0.2c0.2,0.2,0.5,0.2,0.7,0
								C-166.9,231.5-166.8,231.3-166.8,231.2z"/>
						</g>
					</g>
					<g id="g2846" transform="translate(184.1265,222.04)">
						<g id="path2848">
							<path class="st2" d="M-170.6,265.8c-0.1,0-0.3,0.1-0.4,0.2c-0.2,0.2-0.2,0.5,0,0.7l1.3,1.3c0.2,0.2,0.5,0.2,0.7,0
								c0.2-0.2,0.2-0.5,0-0.7l-1.3-1.3C-170.3,265.8-170.5,265.8-170.6,265.8z"/>
						</g>
					</g>
					<g id="g2850" transform="translate(215.9463,190.2197)">
						<g id="path2852">
							<path class="st2" d="M-200.8,296c-0.1,0-0.3,0.1-0.4,0.2c-0.2,0.2-0.2,0.5,0,0.7l1.3,1.3c0.2,0.2,0.5,0.2,0.7,0
								c0.2-0.2,0.2-0.5,0-0.7l-1.3-1.3C-200.5,296-200.7,296-200.8,296z"/>
						</g>
					</g>
					<g id="g2854" transform="translate(247.7661,158.4004)">
						<g id="path2856">
							<path class="st2" d="M-231,326.2c-0.1,0-0.3,0.1-0.4,0.2c-0.2,0.2-0.2,0.5,0,0.7l1.3,1.3c0.2,0.2,0.5,0.2,0.7,0
								c0.2-0.2,0.2-0.5,0-0.7l-1.3-1.3C-230.7,326.2-230.9,326.2-231,326.2z"/>
						</g>
					</g>
					<g id="g2858" transform="translate(296.0527,126.5811)">
						<g id="path2860">
							<path class="st2" d="M-275.5,357.6c-0.1,0-0.3,0.1-0.4,0.2l-0.4,0.4c-0.2,0.2-0.2,0.5,0,0.7c0.2,0.2,0.5,0.2,0.7,0l0.4-0.4
								c0.2-0.2,0.2-0.5,0-0.7C-275.3,357.7-275.4,357.6-275.5,357.6z"/>
						</g>
					</g>
					<g id="g2862" transform="translate(327.873,158.4004)">
						<g id="path2864">
							<path class="st2" d="M-305.7,327.4c-0.1,0-0.3,0.1-0.4,0.2l-0.4,0.4c-0.2,0.2-0.2,0.5,0,0.7c0.2,0.2,0.5,0.2,0.7,0l0.4-0.4
								c0.2-0.2,0.2-0.5,0-0.7C-305.5,327.5-305.6,327.4-305.7,327.4z"/>
						</g>
					</g>
					<g id="g2866" transform="translate(359.6924,190.2197)">
						<g id="path2868">
							<path class="st2" d="M-335.9,297.2c-0.1,0-0.3,0.1-0.4,0.2l-0.4,0.4c-0.2,0.2-0.2,0.5,0,0.7c0.2,0.2,0.5,0.2,0.7,0l0.4-0.4
								c0.2-0.2,0.2-0.5,0-0.7C-335.6,297.3-335.8,297.2-335.9,297.2z"/>
						</g>
					</g>
				</g>
			</g>
		</g>
	</g>
</g>
</svg>
