<?xml version="1.0" encoding="utf-8"?>
<!-- Generator: Adobe Illustrator 27.4.0, SVG Export Plug-In . SVG Version: 6.00 Build 0)  -->
<svg version="1.1" id="Layer_1" xmlns="http://www.w3.org/2000/svg" xmlns:xlink="http://www.w3.org/1999/xlink" x="0px" y="0px"
	 viewBox="0 0 173.5 55.1" style="enable-background:new 0 0 173.5 55.1;" xml:space="preserve">
<style type="text/css">
	.st0{fill:#F5864E;}
	.st1{fill:#EA6725;}
	.st2{fill:#FFFFFF;}
</style>
<g>
	<path class="st0" d="M168.2,0.1H5.6c-3,0-5.5,2.5-5.5,5.5v43.9c0,3,2.5,5.5,5.5,5.5h162.6c3,0,5.5-2.5,5.5-5.5V5.6
		C173.7,2.5,171.2,0.1,168.2,0.1z"/>
	<path class="st1" d="M5.6,0.1c-3,0-5.5,2.5-5.5,5.5v43.9c0,3,2.5,5.5,5.5,5.5h44.3V0.1H5.6z"/>
	<g>
		<path class="st2" d="M58.4,34.2V19.3h3.3v14.8H58.4z M61,28.8v-2.6h3.2c0.4,0,0.8-0.1,1.1-0.2c0.3-0.2,0.6-0.4,0.8-0.7
			s0.3-0.7,0.3-1.2c0-0.5-0.1-0.9-0.3-1.2s-0.5-0.6-0.8-0.7c-0.3-0.2-0.7-0.2-1.1-0.2H61v-2.6h3.7c0.9,0,1.8,0.2,2.6,0.6
			s1.4,0.9,1.8,1.6s0.7,1.6,0.7,2.5c0,1-0.2,1.8-0.7,2.5s-1,1.3-1.8,1.6s-1.6,0.6-2.6,0.6H61z"/>
		<path class="st2" d="M69.4,34.2l5.9-14.8h3l5.8,14.8h-3.5l-4.4-12.3h1.2l-4.5,12.3H69.4z M72.7,31.5v-2.7h8.1v2.7H72.7z"/>
		<path class="st2" d="M88.3,28.7l-5.7-9.3h3.8l4.4,7.5h-2.5l4.4-7.5h3.8l-5.8,9.3H88.3z M87.9,34.2v-7h3.3v7H87.9z"/>
		<path class="st2" d="M97.7,34.2V19.3h2.4l5.8,9.1h-1.2l5.8-9.1h2.4v14.8h-3.3v-9.3l0.6,0.2l-3.8,5.9h-2.2l-3.8-5.9l0.6-0.2v9.3
			H97.7z"/>
		<path class="st2" d="M115.7,34.2V19.3h3.3v14.8H115.7z M118.3,22.2v-2.9h8v2.9H118.3z M118.3,28v-2.8h7.4V28H118.3z M118.3,34.2
			v-2.9h8.2v2.9H118.3z"/>
		<path class="st2" d="M128.7,34.2V19.3h2.3l1,3v11.9H128.7z M138.9,34.2L130.2,23l0.8-3.6l8.7,11.2L138.9,34.2z M138.9,34.2l-0.9-3
			V19.3h3.3v14.8H138.9z"/>
		<path class="st2" d="M143.2,22.2v-2.9h12.6v2.9H143.2z M147.8,34.2V19.5h3.3v14.7H147.8z"/>
		<path class="st2" d="M161.3,34.4c-1.2,0-2.3-0.2-3.2-0.6c-0.9-0.4-1.7-1-2.4-1.8l2.1-2.1c0.5,0.5,1,1,1.6,1.3
			c0.6,0.3,1.3,0.5,2,0.5c0.7,0,1.2-0.1,1.6-0.4c0.4-0.3,0.6-0.6,0.6-1.1c0-0.4-0.1-0.7-0.4-1c-0.2-0.3-0.6-0.5-1-0.7
			c-0.4-0.2-0.9-0.4-1.4-0.5c-0.5-0.2-1-0.4-1.5-0.6c-0.5-0.2-1-0.5-1.4-0.8c-0.4-0.3-0.7-0.7-1-1.2c-0.3-0.5-0.4-1.1-0.4-1.9
			c0-0.9,0.2-1.7,0.7-2.4c0.4-0.7,1.1-1.2,1.9-1.5c0.8-0.3,1.7-0.5,2.7-0.5c1.1,0,2,0.2,2.9,0.5c0.9,0.4,1.6,0.9,2.1,1.5l-2.2,2.2
			c-0.4-0.5-0.9-0.8-1.4-1c-0.5-0.2-1-0.3-1.5-0.3c-0.6,0-1,0.1-1.4,0.3c-0.3,0.2-0.5,0.5-0.5,0.9c0,0.4,0.1,0.7,0.4,0.9
			c0.3,0.2,0.6,0.4,1,0.6c0.4,0.2,0.9,0.3,1.4,0.5c0.5,0.2,1,0.4,1.5,0.6c0.5,0.2,0.9,0.5,1.4,0.9c0.4,0.4,0.7,0.8,1,1.3
			c0.3,0.5,0.4,1.2,0.4,2c0,1.4-0.5,2.5-1.5,3.3C164.5,34,163.1,34.4,161.3,34.4z"/>
	</g>
	<g>
		<path class="st2" d="M34.7,24.7v-9.2c0-0.4-0.3-0.7-0.7-0.7c-2,0-3.6-1.6-3.6-3.6c0-0.4-0.3-0.7-0.7-0.7H12.5
			c-0.4,0-0.7,0.3-0.7,0.7c0,2-1.6,3.6-3.6,3.6c-0.4,0-0.7,0.3-0.7,0.7V29c0,7.5,12.8,13.3,13.3,13.6c0.1,0,0.2,0.1,0.3,0.1
			c0.1,0,0.2,0,0.3-0.1c0.1,0,1.4-0.6,3.2-1.6c1.9,2.2,4.7,3.7,7.8,3.7c5.6,0,10.1-4.5,10.1-10.1C42.4,29.8,39.1,25.8,34.7,24.7z
			 M21.1,41.2C19.2,40.2,8.9,35,8.9,29V16.2c2.2-0.3,4-2.1,4.3-4.3h15.7c0.3,2.2,2.1,4,4.3,4.3v8.3c-0.3,0-0.6,0-0.9,0
			c-5.6,0-10.1,4.5-10.1,10.1c0,1.9,0.5,3.7,1.5,5.2C22.5,40.5,21.5,40.9,21.1,41.2z M32.3,43.2c-4.8,0-8.7-3.9-8.7-8.7
			c0-4.8,3.9-8.7,8.7-8.7c4.8,0,8.7,3.9,8.7,8.7C41,39.3,37.1,43.2,32.3,43.2z"/>
		<path class="st2" d="M32.3,30.9c0.8,0,1.5,0.7,1.5,1.5c0,0.4,0.3,0.7,0.7,0.7s0.7-0.3,0.7-0.7c0-1.4-0.9-2.5-2.2-2.8V29
			c0-0.4-0.3-0.7-0.7-0.7c-0.4,0-0.7,0.3-0.7,0.7v0.5c-1.3,0.3-2.2,1.5-2.2,2.8c0,1.6,1.3,2.9,2.9,2.9c0.8,0,1.5,0.7,1.5,1.5
			s-0.7,1.5-1.5,1.5c-0.8,0-1.5-0.7-1.5-1.5c0-0.4-0.3-0.7-0.7-0.7s-0.7,0.3-0.7,0.7c0,1.4,0.9,2.5,2.2,2.8v0.5
			c0,0.4,0.3,0.7,0.7,0.7c0.4,0,0.7-0.3,0.7-0.7v-0.5c1.3-0.3,2.2-1.5,2.2-2.8c0-1.6-1.3-2.9-2.9-2.9c-0.8,0-1.5-0.7-1.5-1.5
			C30.8,31.5,31.5,30.9,32.3,30.9z"/>
		<path class="st2" d="M24.7,22.3c-0.3-0.3-0.7-0.3-1,0l-4.8,4.8L16.7,25c-0.3-0.3-0.7-0.3-1,0c-0.3,0.3-0.3,0.7,0,1l2.7,2.7
			c0.1,0.1,0.3,0.2,0.5,0.2s0.4-0.1,0.5-0.2l5.4-5.4C25,23,25,22.6,24.7,22.3z"/>
	</g>
</g>
</svg>
