<svg width="435" height="84" viewBox="0 0 435 84" fill="none" xmlns="http://www.w3.org/2000/svg">
<rect width="435" height="84" rx="20" fill="#2E68A6"/>
<path d="M69.204 44.519V40.493H74.22C74.858 40.493 75.441 40.361 75.969 40.097C76.497 39.833 76.915 39.448 77.223 38.942C77.531 38.436 77.685 37.82 77.685 37.094C77.685 36.39 77.531 35.785 77.223 35.279C76.915 34.773 76.497 34.388 75.969 34.124C75.441 33.86 74.858 33.728 74.22 33.728H69.204V29.702H74.979C76.453 29.702 77.784 29.999 78.972 30.593C80.16 31.187 81.095 32.045 81.777 33.167C82.481 34.267 82.833 35.576 82.833 37.094C82.833 38.612 82.481 39.932 81.777 41.054C81.095 42.154 80.16 43.012 78.972 43.628C77.784 44.222 76.453 44.519 74.979 44.519H69.204ZM65.244 53V29.702H70.425V53H65.244ZM93.0001 43.397V39.569H97.9171C98.9511 39.569 99.7431 39.305 100.293 38.777C100.865 38.249 101.151 37.534 101.151 36.632C101.151 35.796 100.876 35.103 100.326 34.553C99.7761 34.003 98.9841 33.728 97.9501 33.728H93.0001V29.702H98.5441C100.084 29.702 101.437 29.999 102.603 30.593C103.769 31.165 104.682 31.968 105.342 33.002C106.002 34.036 106.332 35.224 106.332 36.566C106.332 37.93 106.002 39.129 105.342 40.163C104.682 41.175 103.758 41.967 102.57 42.539C101.382 43.111 99.9851 43.397 98.3791 43.397H93.0001ZM89.0401 53V29.702H94.2211V53H89.0401ZM101.712 53L94.4521 42.968L99.2041 41.681L107.85 53H101.712ZM113.416 53V29.702H118.597V53H113.416ZM133.644 53L124.668 29.702H130.212L137.043 48.545H134.766L141.696 29.702H147.174L138.099 53H133.644ZM148.496 53L157.736 29.702H162.422L171.563 53H166.085L159.089 33.662H160.97L153.875 53H148.496ZM153.743 48.776V44.552H166.448V48.776H153.743ZM187.126 53.363C185.388 53.363 183.771 53.066 182.275 52.472C180.801 51.856 179.503 50.998 178.381 49.898C177.281 48.798 176.423 47.522 175.807 46.07C175.191 44.596 174.883 43.012 174.883 41.318C174.883 39.624 175.191 38.051 175.807 36.599C176.423 35.125 177.281 33.849 178.381 32.771C179.481 31.693 180.768 30.857 182.242 30.263C183.738 29.647 185.355 29.339 187.093 29.339C188.941 29.339 190.58 29.636 192.01 30.23C193.462 30.824 194.727 31.638 195.805 32.672L192.34 36.17C191.724 35.51 190.976 34.993 190.096 34.619C189.238 34.245 188.237 34.058 187.093 34.058C186.081 34.058 185.146 34.234 184.288 34.586C183.452 34.916 182.726 35.4 182.11 36.038C181.516 36.676 181.043 37.446 180.691 38.348C180.361 39.25 180.196 40.24 180.196 41.318C180.196 42.418 180.361 43.419 180.691 44.321C181.043 45.223 181.516 45.993 182.11 46.631C182.726 47.269 183.452 47.764 184.288 48.116C185.146 48.468 186.081 48.644 187.093 48.644C188.281 48.644 189.315 48.457 190.195 48.083C191.075 47.709 191.834 47.192 192.472 46.532L195.97 50.03C194.848 51.064 193.561 51.878 192.109 52.472C190.679 53.066 189.018 53.363 187.126 53.363ZM208.35 44.321L199.374 29.702H205.38L212.277 41.516H208.416L215.313 29.702H221.187L212.145 44.321H208.35ZM207.723 53V41.945H212.904V53H207.723ZM239.753 44.519V40.493H244.769C245.407 40.493 245.99 40.361 246.518 40.097C247.046 39.833 247.464 39.448 247.772 38.942C248.08 38.436 248.234 37.82 248.234 37.094C248.234 36.39 248.08 35.785 247.772 35.279C247.464 34.773 247.046 34.388 246.518 34.124C245.99 33.86 245.407 33.728 244.769 33.728H239.753V29.702H245.528C247.002 29.702 248.333 29.999 249.521 30.593C250.709 31.187 251.644 32.045 252.326 33.167C253.03 34.267 253.382 35.576 253.382 37.094C253.382 38.612 253.03 39.932 252.326 41.054C251.644 42.154 250.709 43.012 249.521 43.628C248.333 44.222 247.002 44.519 245.528 44.519H239.753ZM235.793 53V29.702H240.974V53H235.793ZM270.936 53.396C269.176 53.396 267.548 53.088 266.052 52.472C264.578 51.856 263.28 50.998 262.158 49.898C261.036 48.798 260.167 47.522 259.551 46.07C258.935 44.596 258.627 43.012 258.627 41.318C258.627 39.602 258.935 38.018 259.551 36.566C260.167 35.114 261.025 33.849 262.125 32.771C263.225 31.671 264.512 30.824 265.986 30.23C267.482 29.614 269.11 29.306 270.87 29.306C272.608 29.306 274.214 29.614 275.688 30.23C277.184 30.824 278.482 31.671 279.582 32.771C280.704 33.849 281.573 35.125 282.189 36.599C282.805 38.051 283.113 39.635 283.113 41.351C283.113 43.045 282.805 44.629 282.189 46.103C281.573 47.555 280.715 48.831 279.615 49.931C278.515 51.009 277.217 51.856 275.721 52.472C274.247 53.088 272.652 53.396 270.936 53.396ZM270.87 48.677C272.256 48.677 273.466 48.369 274.5 47.753C275.556 47.137 276.37 46.279 276.942 45.179C277.514 44.057 277.8 42.77 277.8 41.318C277.8 40.218 277.635 39.228 277.305 38.348C276.975 37.446 276.502 36.676 275.886 36.038C275.27 35.378 274.533 34.883 273.675 34.553C272.839 34.201 271.904 34.025 270.87 34.025C269.484 34.025 268.263 34.333 267.207 34.949C266.173 35.543 265.37 36.39 264.798 37.49C264.226 38.568 263.94 39.844 263.94 41.318C263.94 42.418 264.105 43.419 264.435 44.321C264.765 45.223 265.227 46.004 265.821 46.664C266.437 47.302 267.174 47.797 268.032 48.149C268.89 48.501 269.836 48.677 270.87 48.677ZM289.702 53V29.702H294.883V53H289.702ZM293.695 53V48.446H305.212V53H293.695ZM311.5 53V29.702H316.681V53H311.5ZM335.523 53.363C333.785 53.363 332.168 53.066 330.672 52.472C329.198 51.856 327.9 50.998 326.778 49.898C325.678 48.798 324.82 47.522 324.204 46.07C323.588 44.596 323.28 43.012 323.28 41.318C323.28 39.624 323.588 38.051 324.204 36.599C324.82 35.125 325.678 33.849 326.778 32.771C327.878 31.693 329.165 30.857 330.639 30.263C332.135 29.647 333.752 29.339 335.49 29.339C337.338 29.339 338.977 29.636 340.407 30.23C341.859 30.824 343.124 31.638 344.202 32.672L340.737 36.17C340.121 35.51 339.373 34.993 338.493 34.619C337.635 34.245 336.634 34.058 335.49 34.058C334.478 34.058 333.543 34.234 332.685 34.586C331.849 34.916 331.123 35.4 330.507 36.038C329.913 36.676 329.44 37.446 329.088 38.348C328.758 39.25 328.593 40.24 328.593 41.318C328.593 42.418 328.758 43.419 329.088 44.321C329.44 45.223 329.913 45.993 330.507 46.631C331.123 47.269 331.849 47.764 332.685 48.116C333.543 48.468 334.478 48.644 335.49 48.644C336.678 48.644 337.712 48.457 338.592 48.083C339.472 47.709 340.231 47.192 340.869 46.532L344.367 50.03C343.245 51.064 341.958 51.878 340.506 52.472C339.076 53.066 337.415 53.363 335.523 53.363ZM356.746 44.321L347.77 29.702H353.776L360.673 41.516H356.812L363.709 29.702H369.583L360.541 44.321H356.746ZM356.119 53V41.945H361.3V53H356.119Z" fill="white"/>
</svg>
