<?xml version="1.0" encoding="utf-8"?>
<!-- Generator: Adobe Illustrator 27.4.0, SVG Export Plug-In . SVG Version: 6.00 Build 0)  -->
<svg version="1.1" id="Layer_1" xmlns="http://www.w3.org/2000/svg" xmlns:xlink="http://www.w3.org/1999/xlink" x="0px" y="0px"
	 viewBox="0 0 246 163.5" style="enable-background:new 0 0 246 163.5;" xml:space="preserve">
<style type="text/css">
	.st0{fill:#046BAB;}
	.st1{fill:#9A9EA1;}
	.st2{fill:#77A561;}
</style>
<g>
	<g>
		<path class="st0" d="M81.8,48.6c0,0,0-0.1-0.1-0.1c-6.9-12.6-6.5-24.9,1.1-32.7c1.8-1.9,4-3.4,6.5-4.6c11-5.2,24.4,0.8,30.8,10.9
			c1.3,2,2.4,3.8,3.1,4.7c0.9-1,1.9-2.8,3.1-4.7c6.4-10.1,19.9-16.1,30.9-10.9c2.5,1.2,4.6,2.7,6.5,4.6c1.2,1.2,2.2,2.6,3,4
			c2.3-1.8,4.7-3.7,7-5.6c-1.1-1.7-2.3-3.3-3.8-4.8c-2.6-2.6-5.6-4.8-9.1-6.4c-12.9-6.1-28.7-2.2-37.7,8.2
			c-9-10.4-24.7-14.4-37.6-8.2c-3.4,1.6-6.5,3.8-9,6.4c-9.4,9.6-11.1,24.1-5,38.6C74.6,48.3,78,48.5,81.8,48.6"/>
		<g>
			<g>
				<path class="st1" d="M167.1,43.5c-0.7,1.6-1.4,3.3-2.4,5c-7,12.8-19.4,22.7-41.6,40.4C112.7,80.6,104.5,74,97.9,68
					c-4.3,0.4-8.3,0.6-12.1,0.6c7.9,8.3,18.6,16.8,32.7,28l4.7,3.8l4.8-3.8c22.8-18.1,36.6-29.1,44.5-43.6c3.2-5.8,5-11.6,5.7-17.2
					C174.5,38.6,170.8,41.2,167.1,43.5"/>
			</g>
		</g>
		<path class="st2" d="M120.9,75.9c-2.3-0.1-5.2-2.2-9.6-6.8c-5.7-6.1-10.7-13.2-11.9-20.3c-1.8-10.7,10.3-20.8,20.9-15.4
			c1.1,0.6,5.7,4.4,5.7,5.2c0.1,3.2-4.7,6.2-8.4,8.1c0.2,0,0.4,0,0.6,0.1c1.4,0.1,4.4-0.1,9.2-2.4c1.6-0.8,3.3-1.1,4.8-1
			c4.3,0.2,7.9,3.7,9.9,9.6c0.3,0.8,2.4,7.5,0,9.7c-1.2,1.1-2.8,1.4-4.4,1.1c0,1.4-0.5,2.6-1.6,3.6c-1,0.8-2.5,1-4,0.6
			c-0.1,1.2-0.6,2.4-1.4,3.3c-1.3,1.4-3.1,1.7-5.1,1c-0.3,1-0.9,2.1-2.4,3.1C122.5,75.7,121.7,75.9,120.9,75.9 M103.6,48.4
			c0.8,5.7,5.2,11.7,10.8,17.6c4.6,4.9,6.3,5.5,6.7,5.5c0.2-0.1,0.4-0.3,0.4-0.5c0-0.3-0.2-1.1-1.2-2.3c-0.9-0.8-1.4-1.5-1.4-1.5
			l2.9-3.1c0.1,0.1,0.8,0.7,1.6,1.6c2,1.8,3.4,2.5,4.1,2.5c0.2,0,0.2,0,0.3-0.1c0.2-0.2,0.2-0.3,0.2-0.6c0-1-1.3-2.8-2.4-3.9
			l2.8-3.3l0.1,0.1c1.6,1.5,4.3,4,5.2,3.3c0.4-0.3,0.2-2.9-0.8-4.3l2.4-2.1c0.9,0.9,2.6,2.1,3.8,2.2c0.1,0,0.2,0,0.3,0
			c0.2-1.4-0.5-5.6-2.6-8.8c-2-3-4.4-3.8-7.3-2.4c-5.3,2.5-9,2.9-11.2,2.7c-3-0.2-5-1.5-5.5-3.4c-0.1-0.7-0.3-3,2.8-4.6
			c3.1-1.6,4.7-3.1,5.4-3.9c-1-0.5-1.9-1.6-3.3-2.5C111.9,33,102.7,42.2,103.6,48.4"/>
		<g>
			<g>
				<path class="st2" d="M156,41.2l0-0.4c0-0.5,0-1-0.1-1.5l0-0.2c0-0.3-0.1-0.5-0.1-0.8l-0.2-0.8c-0.1-0.3-0.1-0.6-0.2-0.9
					l-0.1-0.5c-0.1-0.3-0.2-0.5-0.3-0.8l-0.1-0.3c-0.2-0.5-0.4-1-0.7-1.4l-0.1-0.2c-0.1-0.2-0.2-0.4-0.4-0.7l-0.5-0.7l-0.8-1.1
					c-0.1-0.2-0.3-0.4-0.5-0.6l-0.3-0.3c-0.3-0.3-0.7-0.7-1.1-1l-0.2-0.2c-0.2-0.1-0.3-0.3-0.6-0.5l-0.8-0.6
					c-0.1-0.1-0.2-0.2-0.3-0.2l-1.1-0.6c-0.2-0.1-0.5-0.3-0.8-0.4l-0.5-0.2c-0.2-0.1-0.4-0.2-0.7-0.3c-1.4-0.5-2.6-0.7-3.7-0.8
					l-0.3,0c-0.2,0-0.3,0-0.6,0l-0.9,0c-0.5,0-1,0-1.5,0.1l-0.4,0c-0.3,0-0.6,0.1-0.9,0.1l-1,0.2l-1.2,0.3c-0.3,0.1-0.5,0.2-0.7,0.2
					l-0.9,0.3c-0.1,0-0.2,0.1-0.4,0.2l-1.1,0.5c-0.2,0.1-0.4,0.2-0.6,0.3l-0.5,0.3c-0.2,0.1-0.4,0.2-0.6,0.4l-0.6,0.4
					c-0.4,0.3-0.8,0.6-1.1,0.8c-0.1,0.1-0.2,0.2-0.3,0.3c-0.2,0.2-0.4,0.4-0.6,0.6l-0.7,0.7l-1.1,1.2l0.5,0.5l-0.6-0.5l-1.2,1.4l0,0
					l-0.1,0.1c-0.1,0.1-0.2,0.3-0.4,0.4l-0.2,0.2c-0.1,0.1-0.2,0.2-0.3,0.4l-1.2,1.2l-1.6,3c0,0-0.8,1.5-5.4,3.9
					c-3.1,1.6-3,4-2.8,4.7c0.4,1.9,2.5,3.4,5.5,3.4c7,0,9.9-2.3,12.8-3.3l-4.9-2.8c-4.8,2-8.4,1.7-7.9,1.8c0.1,0,0.1,0,0,0
					c3.2-1.7,8-5.1,8-8.2l0.5-0.5c0.2-0.2,0.4-0.4,0.6-0.6l0.2-0.2c0.1-0.2,0.3-0.3,0.4-0.5l1.1-1.3l1-1.1l0.7-0.7
					c0.1-0.1,0.1-0.1,0.3-0.2c0.2-0.1,0.3-0.2,0.4-0.4c0.2-0.2,0.4-0.4,0.8-0.6l0.6-0.4c0.1-0.1,0.2-0.1,0.4-0.2l0.5-0.3
					c0.1-0.1,0.2-0.1,0.3-0.2l0.7-0.4l1.5-0.6c0.1,0,0.2-0.1,0.3-0.1c0.1,0,0.2-0.1,0.3-0.1l0.7-0.2l1-0.2c0.1,0,0.2,0,0.4-0.1
					c0.2,0,0.4,0,0.5-0.1c0.3,0,0.6-0.1,0.9-0.1l0.7,0c0.1,0,0.3,0,0.4,0l0.3,0c0.8,0.1,1.6,0.2,2.7,0.6c0.1,0,0.2,0.1,0.3,0.1
					l0.2,0.1c0.1,0.1,0.2,0.1,0.4,0.2c0.1,0,0.1,0.1,0.2,0.1l0.7,0.4l1.2,0.8c0.1,0.1,0.2,0.2,0.3,0.3l0.3,0.3
					c0.2,0.2,0.4,0.4,0.7,0.6l0.3,0.3c0.1,0.1,0.2,0.2,0.2,0.3l1.1,1.5c0.1,0.1,0.1,0.2,0.2,0.3c0.1,0.1,0.1,0.2,0.2,0.4
					c0.1,0.2,0.3,0.6,0.4,0.9l0.2,0.4c0,0.1,0.1,0.2,0.1,0.3c0,0.1,0.1,0.3,0.1,0.3l0.1,0.2c0,0.1,0.1,0.2,0.1,0.4l0.2,0.8
					c0,0.1,0,0.2,0,0.3l0,0.4c0,0.3,0.1,0.6,0.1,1l0,0.5c0,0.1,0,0.2,0,0.3l0,0.3c0,0.1,0,0.3,0,0.4c0,0.1,0,0.2,0,0.3l-0.1,0.5
					c-0.1,0.4-0.1,0.7-0.2,1.1l-0.2,0.8l-0.2,0.8c-0.1,0.3-0.2,0.7-0.4,1l-0.2,0.5c-0.1,0.2-0.1,0.4-0.3,0.6l-0.3,0.7
					c-0.8,1.6-1.3,2.4-1.4,2.5c-2.1,2.4-4.1,3.6-5.5,4.5c0.2,1.6,0.4,3.3,0.4,5c2-0.9,4.9-2.7,8.3-6.6c0.2-0.2,0.8-0.9,2.1-3.5
					l0.4-0.8c0.2-0.3,0.3-0.6,0.4-0.9l0.2-0.4c0.2-0.4,0.4-0.9,0.5-1.4l0.3-0.8l0.2-0.9c0.1-0.5,0.2-1.1,0.3-1.5l0-0.3
					c0.1-0.3,0.1-0.6,0.1-0.9l0-0.5C156,41.8,156,41.5,156,41.2"/>
			</g>
		</g>
	</g>
	<g>
		<path class="st0" d="M1,107.7h26.2l0.6,11.6h-1.5c-1-6.8-3.6-10.2-7.8-10.2c-0.8,0-1.4,0.1-1.7,0.4c-0.3,0.3-0.5,0.7-0.5,1.4v24.5
			c0,0.5,0.2,0.9,0.5,1.1c0.3,0.2,0.8,0.4,1.5,0.4h3.3v1.6h-15v-1.6h3.7c0.5,0,0.9-0.1,1.1-0.4c0.3-0.2,0.4-0.5,0.4-0.9v-24.8
			c0-0.5-0.2-0.9-0.5-1.2c-0.3-0.3-0.9-0.4-1.6-0.4c-2.1,0-3.9,0.9-5.3,2.8c-1.2,1.6-2,4-2.5,7.4H0.3L1,107.7z"/>
		<path class="st0" d="M29.4,107.7l7.8-0.4v15c1.1-1.3,2.2-2.3,3.5-3c1.2-0.7,2.6-1,3.9-1c1.3,0,2.5,0.3,3.5,0.9
			c0.8,0.5,1.5,1.3,2.1,2.5c0.6,1.2,0.9,2.6,0.9,4.2v9.2c0,0.6,0.2,1,0.5,1.3c0.3,0.3,0.8,0.4,1.5,0.4h1.7v1.6H43.7v-1.6h1.2
			c0.9,0,1.6-0.1,1.9-0.4c0.4-0.3,0.5-0.7,0.5-1.3v-9.2c0-1.6-0.4-2.9-1.2-3.8c-0.8-0.9-1.9-1.4-3.2-1.4c-1,0-1.9,0.3-2.8,0.8
			c-0.9,0.5-1.6,1.3-2.2,2.3c-0.6,1-0.9,2.1-0.9,3.3v7.7c0,0.7,0.2,1.2,0.5,1.5c0.3,0.3,0.8,0.4,1.5,0.4h1.7v1.6H30v-1.6h1.2
			c0.8,0,1.4-0.2,1.8-0.5c0.3-0.3,0.5-0.8,0.5-1.4v-23.2c0-0.8-0.2-1.4-0.7-1.9c-0.5-0.4-1.1-0.6-2-0.6h-1.5V107.7z"/>
		<path class="st0" d="M73.6,128.8H58.9c0.1,3,0.7,5,1.7,6.3c1.3,1.4,2.8,2.1,4.8,2.1c2.9,0,5.2-1.5,6.9-4.6l1.4,0.6
			c-2.1,3.9-5.2,5.9-9.2,5.9c-2.7,0-5-0.9-6.9-2.8c-1.9-1.9-2.8-4.3-2.8-7.2c0-3.1,0.9-5.7,2.8-7.6c1.8-1.9,4.1-2.9,6.8-2.9
			c2,0,3.7,0.5,5.1,1.5c1.4,1,2.5,2.4,3.3,4.2C73.3,125.2,73.5,126.8,73.6,128.8z M58.9,127.3h8.9c0.5,0,0.9-0.2,1.2-0.5
			c0.3-0.3,0.4-0.9,0.4-1.7c0-1.5-0.5-2.8-1.5-3.9c-1-1.1-2.2-1.6-3.5-1.6c-1.5,0-2.8,0.6-3.9,1.9C59.5,122.8,59,124.7,58.9,127.3z"
			/>
		<path class="st0" d="M108,110.1l1.8-3.1h1.5l0.8,12.2h-1.4c-1.1-3.5-2.4-6.1-3.9-7.6c-1.9-2-4.1-3-6.5-3c-1.9,0-3.6,0.5-5,1.5
			c-1.5,1-2.6,2.5-3.4,4.5c-0.8,2-1.2,4.9-1.2,8.5c0,3.5,0.4,6.3,1.2,8.3c0.8,2,1.9,3.5,3.3,4.4c1.4,0.9,3,1.4,4.9,1.4
			c2.5,0,4.5-0.7,5.9-2c1.4-1.4,2.1-3.1,2.1-5.2v-2.9c0-0.5-0.2-0.8-0.6-1.1c-0.4-0.2-1-0.4-1.8-0.4h-2.7v-1.5h13.6v1.5h-1.8
			c-0.8,0-1.4,0.1-1.7,0.4c-0.3,0.3-0.5,0.7-0.5,1.2v11.7h-1.4c-0.5-1.8-1.1-3.6-1.6-5.2c-1.1,1.7-2.4,3-3.9,3.8
			c-1.5,0.8-3.2,1.3-5.1,1.3c-2.7,0-5.2-0.7-7.6-2s-4.2-3.2-5.5-5.6c-1.3-2.4-2-5.1-2-8.2c0-3.1,0.7-5.8,2-8.2
			c1.4-2.4,3.2-4.3,5.6-5.8c2.4-1.4,4.7-2.1,7.1-2.1c1.4,0,2.7,0.2,3.9,0.7C105,108.2,106.4,109,108,110.1z"/>
		<path class="st0" d="M138.4,136.2l0.8,1.2c-1.1,1-2.2,1.6-3.5,1.6c-1,0-1.8-0.3-2.5-0.8c-0.7-0.5-1.3-1.4-1.8-2.7
			c-1.4,1.4-2.6,2.3-3.7,2.8c-1,0.5-2.3,0.7-3.8,0.7c-2.1,0-3.7-0.4-4.8-1.3s-1.6-2-1.6-3.3c0-2,1.2-3.7,3.7-5
			c2.5-1.3,5.8-2.2,10-2.7v-2.9c0-1-0.4-1.9-1.3-2.7c-0.9-0.7-2-1.1-3.4-1.1c-1.3,0-2.4,0.2-3.3,0.7c-0.7,0.4-1,0.7-1,1.1
			c0,0.2,0.2,0.5,0.5,1c0.4,0.6,0.6,1,0.6,1.5c0,0.6-0.2,1.1-0.6,1.5c-0.4,0.4-1,0.6-1.7,0.6c-0.7,0-1.3-0.2-1.8-0.7
			c-0.5-0.5-0.7-1.1-0.7-1.8c0-1.4,0.8-2.6,2.4-3.7c1.6-1.1,3.8-1.7,6.4-1.7c2.4,0,4.3,0.5,5.6,1.5c1.3,1,1.9,2.2,1.9,3.7v10.6
			c0,0.9,0.2,1.6,0.5,2.1c0.3,0.5,0.7,0.7,1.2,0.7C137.2,136.9,137.8,136.7,138.4,136.2z M131.2,128c-3.7,0.5-6.3,1.3-7.9,2.4
			c-1.2,0.8-1.7,2-1.7,3.5c0,1.1,0.3,1.9,0.9,2.5c0.6,0.6,1.4,0.9,2.3,0.9c1.7,0,3.2-0.6,4.5-1.9c1.3-1.2,1.9-2.8,1.9-4.7V128z"/>
		<path class="st0" d="M140.7,118.9l7.4-0.4v7.9c0.8-2.6,1.7-4.5,2.8-5.9c1.1-1.3,2.5-2,4.1-2c1.1,0,2,0.3,2.7,1
			c0.7,0.6,1,1.5,1,2.6c0,0.9-0.2,1.5-0.7,2c-0.4,0.5-1,0.7-1.7,0.7c-0.7,0-1.2-0.2-1.6-0.6c-0.4-0.4-0.6-1-0.6-1.7
			c0-0.5,0.1-0.9,0.4-1.3c0.2-0.4,0.3-0.6,0.3-0.6c0-0.2-0.1-0.3-0.4-0.3c-0.6,0-1.3,0.3-2,1c-1,0.9-1.9,2.2-2.4,3.8
			c-0.9,2.5-1.3,4.5-1.3,6v4.2c0,0.5,0.2,0.8,0.5,1.1c0.3,0.2,0.9,0.4,1.8,0.4h2.6v1.6h-12.7v-1.6h2c0.7,0,1.2-0.1,1.6-0.4
			c0.3-0.3,0.5-0.6,0.5-0.9v-12.4c0-0.9-0.2-1.6-0.6-2.1c-0.4-0.4-1-0.7-1.8-0.7h-1.8V118.9z"/>
		<path class="st0" d="M170.7,107.7l8-0.4v26.6c0,1,0.2,1.8,0.6,2.2c0.4,0.4,1,0.7,1.9,0.7h1.4v1.6h-7l-0.5-4
			c-0.8,1.4-1.8,2.5-2.9,3.2c-1.1,0.7-2.4,1.1-3.7,1.1c-2.3,0-4.3-0.9-6-2.8c-1.6-1.9-2.5-4.3-2.5-7.3c0-3.3,1-5.9,3.1-7.9
			c1.6-1.5,3.5-2.3,5.7-2.3c1.3,0,2.5,0.3,3.5,0.9c1,0.6,1.9,1.6,2.7,2.8v-11c0-0.6-0.2-1-0.7-1.4c-0.5-0.3-1.2-0.5-2.2-0.5h-1.5
			V107.7z M169.5,120.1c-1.6,0-2.8,0.6-3.7,1.8c-0.9,1.2-1.4,3.3-1.4,6.2c0,3.2,0.5,5.4,1.4,6.7c0.9,1.3,2.2,1.9,3.7,1.9
			c1.6,0,2.9-0.7,4.1-2.2c1.1-1.4,1.7-3.6,1.7-6.3c0-2.6-0.6-4.7-1.8-6.2C172.3,120.7,171,120.1,169.5,120.1z"/>
		<path class="st0" d="M201.6,128.8H187c0.1,3,0.7,5,1.7,6.3c1.3,1.4,2.8,2.1,4.8,2.1c2.9,0,5.2-1.5,6.9-4.6l1.4,0.6
			c-2.1,3.9-5.2,5.9-9.2,5.9c-2.7,0-5-0.9-6.9-2.8c-1.9-1.9-2.8-4.3-2.8-7.2c0-3.1,0.9-5.7,2.8-7.6c1.8-1.9,4.1-2.9,6.8-2.9
			c2,0,3.7,0.5,5.1,1.5c1.4,1,2.5,2.4,3.3,4.2C201.3,125.2,201.6,126.8,201.6,128.8z M187,127.3h8.9c0.5,0,0.9-0.2,1.2-0.5
			c0.3-0.3,0.4-0.9,0.4-1.7c0-1.5-0.5-2.8-1.5-3.9c-1-1.1-2.2-1.6-3.5-1.6c-1.5,0-2.8,0.6-3.9,1.9C187.6,122.8,187,124.7,187,127.3z
			"/>
		<path class="st0" d="M202.7,118.9l6.8-0.4c0.3,1.2,0.5,2.6,0.6,4.3c0.9-1.4,2-2.5,3.2-3.2c1.2-0.7,2.7-1.1,4.2-1.1
			c1.4,0,2.5,0.3,3.4,0.8c0.9,0.5,1.7,1.3,2.2,2.4c0.6,1.1,0.8,2.3,0.8,3.7v9.4c0,0.7,0.2,1.2,0.5,1.5c0.3,0.3,0.9,0.4,1.7,0.4h1.4
			v1.6h-10.8v-1.6h1c1,0,1.6-0.1,2-0.4c0.4-0.3,0.6-0.7,0.6-1.3v-8.3c0-1.8-0.3-3.1-0.9-4c-0.8-1.2-2.1-1.9-3.7-1.9
			c-1.6,0-3,0.6-4.1,1.9c-1.1,1.3-1.7,2.9-1.7,4.9v7.2c0,0.7,0.2,1.2,0.5,1.5c0.3,0.3,0.9,0.4,1.7,0.4h1.4v1.6h-10.8v-1.6h1.4
			c0.7,0,1.3-0.1,1.6-0.4c0.4-0.3,0.6-0.6,0.6-1v-12.5c0-0.8-0.2-1.5-0.7-1.9c-0.5-0.4-1.2-0.6-2-0.6h-1V118.9z"/>
		<path class="st0" d="M231,131c0.9,2.4,1.9,4,3.1,5c1.2,0.9,2.6,1.4,4.3,1.4c1.6,0,2.8-0.3,3.7-1c0.9-0.7,1.3-1.5,1.3-2.5
			c0-0.6-0.2-1.1-0.5-1.5c-0.3-0.4-0.7-0.8-1.3-1c-0.6-0.2-2-0.5-4.3-0.9c-2.2-0.4-3.8-0.8-4.6-1.3c-0.9-0.5-1.6-1.1-2-1.9
			c-0.5-0.8-0.7-1.7-0.7-2.6c0-1.4,0.5-2.7,1.5-3.9c1.3-1.5,3.1-2.2,5.5-2.2c1.8,0,3.4,0.5,4.9,1.6l1.4-1.5h0.9l0.6,6.9h-1.5
			c-0.6-2-1.5-3.4-2.6-4.2c-1.1-0.9-2.4-1.3-4.1-1.3c-1.4,0-2.5,0.3-3.3,1c-0.8,0.6-1.2,1.4-1.2,2.4c0,0.8,0.4,1.5,1.1,2
			c0.7,0.6,2.1,1,4.2,1.3c2.4,0.4,4,0.7,4.7,1c1.2,0.4,2.1,1.1,2.8,1.9c0.7,0.9,1,1.9,1,3.2c0,1.7-0.7,3.2-2.1,4.3
			c-1.4,1.2-3.2,1.8-5.4,1.8c-2,0-3.9-0.6-5.6-1.9l-1.6,1.7H230l-0.4-7.7H231z"/>
	</g>
	<g>
		<path class="st0" d="M72.7,162l0.5,0.7c-0.6,0.6-1.3,0.9-2,0.9c-0.6,0-1-0.2-1.4-0.5c-0.4-0.3-0.7-0.9-1-1.6
			c-0.8,0.8-1.5,1.4-2.1,1.7c-0.6,0.3-1.3,0.4-2.2,0.4c-1.2,0-2.1-0.3-2.7-0.8c-0.6-0.5-0.9-1.2-0.9-2c0-1.2,0.7-2.2,2.1-3
			c1.4-0.8,3.3-1.3,5.7-1.6v-1.8c0-0.6-0.3-1.2-0.8-1.6c-0.5-0.4-1.2-0.7-1.9-0.7c-0.7,0-1.4,0.1-1.9,0.4c-0.4,0.2-0.6,0.4-0.6,0.7
			c0,0.1,0.1,0.3,0.3,0.6c0.2,0.3,0.4,0.6,0.4,0.9c0,0.4-0.1,0.7-0.4,0.9c-0.2,0.2-0.6,0.4-1,0.4c-0.4,0-0.8-0.1-1-0.4
			c-0.3-0.3-0.4-0.6-0.4-1.1c0-0.8,0.5-1.6,1.4-2.3c0.9-0.7,2.1-1,3.7-1c1.4,0,2.5,0.3,3.2,0.9c0.7,0.6,1.1,1.3,1.1,2.2v6.4
			c0,0.6,0.1,1,0.3,1.3c0.2,0.3,0.4,0.4,0.7,0.4C72,162.4,72.3,162.3,72.7,162z M68.6,157.1c-2.1,0.3-3.6,0.8-4.5,1.4
			c-0.7,0.5-1,1.2-1,2.1c0,0.6,0.2,1.1,0.5,1.5c0.3,0.4,0.8,0.5,1.3,0.5c1,0,1.8-0.4,2.6-1.1c0.7-0.7,1.1-1.7,1.1-2.8V157.1z"/>
		<path class="st0" d="M76.6,146.8h0.8v4.8h3.8v1.2h-3.8v7.5c0,0.7,0.2,1.1,0.5,1.5c0.3,0.3,0.7,0.5,1.2,0.5c0.6,0,1.1-0.3,1.5-0.8
			c0.4-0.5,0.6-1.4,0.7-2.6h0.8c-0.1,1.6-0.4,2.7-1.1,3.5c-0.7,0.8-1.5,1.1-2.6,1.1c-1,0-1.7-0.3-2.3-0.8s-0.8-1.2-0.8-2.1v-7.9h-2
			v-0.9c0.9-0.2,1.6-0.5,2.1-1.2C76.2,149.8,76.6,148.5,76.6,146.8z"/>
		<path class="st0" d="M99.6,146.2l1.1-1.6h0.9l0.1,6.7h-0.8c-0.5-2.1-1.3-3.6-2.3-4.5c-1-1-2.2-1.4-3.5-1.4c-1.1,0-2,0.3-2.7,1
			c-0.7,0.7-1.1,1.5-1.1,2.4c0,0.6,0.1,1.1,0.4,1.6c0.3,0.4,0.7,0.8,1.2,1.1c0.5,0.3,1.5,0.6,3,0.9c2.1,0.4,3.5,0.9,4.3,1.4
			c0.8,0.5,1.4,1,1.9,1.7c0.4,0.7,0.6,1.5,0.6,2.4c0,1.7-0.6,3-1.7,4.1c-1.1,1.1-2.6,1.6-4.3,1.6c-1.9,0-3.6-0.6-5-1.9l-1.4,1.7
			h-0.9v-7.2h0.9c0.4,2,1.1,3.5,2.4,4.7c1.2,1.1,2.6,1.7,4.1,1.7c1.2,0,2.2-0.4,3-1.1c0.8-0.7,1.2-1.6,1.2-2.7
			c0-0.6-0.1-1.1-0.4-1.6c-0.3-0.4-0.8-0.8-1.4-1.1c-0.6-0.3-1.9-0.7-3.7-1.1c-2-0.5-3.4-1-4.2-1.6c-1-0.9-1.6-2.1-1.6-3.6
			c0-1.6,0.5-3,1.6-4c1-1,2.4-1.6,4-1.6c0.8,0,1.5,0.1,2.2,0.4C98.1,145.1,98.8,145.6,99.6,146.2z"/>
		<path class="st0" d="M112.6,159.9l0.8,0.2c-0.7,2.4-2.1,3.6-4.3,3.6c-1.6,0-3-0.5-4-1.6c-1-1.1-1.6-2.5-1.6-4.3
			c0-2.1,0.6-3.7,1.7-4.8c1.1-1.1,2.5-1.7,4-1.7c1.2,0,2.1,0.3,2.9,1c0.8,0.6,1.1,1.3,1.1,2.1c0,0.5-0.1,0.9-0.4,1.2s-0.6,0.5-1,0.5
			c-0.4,0-0.7-0.1-1-0.4c-0.3-0.3-0.4-0.6-0.4-0.9c0-0.4,0.1-0.7,0.4-1c0.1-0.2,0.2-0.3,0.2-0.4c0-0.2-0.2-0.5-0.5-0.7
			s-0.8-0.3-1.3-0.3c-1,0-1.8,0.4-2.3,1.1c-0.8,1.1-1.1,2.5-1.1,4.2c0,1.7,0.3,2.9,1,3.8c0.7,0.9,1.5,1.3,2.6,1.3
			C110.9,162.6,111.9,161.7,112.6,159.9z"/>
		<path class="st0" d="M113.8,151.6l4.2-0.2v4.7c0.5-1.6,1-2.7,1.6-3.5c0.6-0.8,1.4-1.2,2.4-1.2c0.6,0,1.1,0.2,1.5,0.6
			c0.4,0.4,0.6,0.9,0.6,1.6c0,0.5-0.1,0.9-0.4,1.2c-0.3,0.3-0.6,0.4-1,0.4c-0.4,0-0.7-0.1-0.9-0.4c-0.2-0.2-0.3-0.6-0.3-1
			c0-0.3,0.1-0.5,0.2-0.8c0.1-0.2,0.2-0.3,0.2-0.4c0-0.1-0.1-0.2-0.2-0.2c-0.3,0-0.7,0.2-1.2,0.6c-0.6,0.6-1.1,1.3-1.4,2.3
			c-0.5,1.5-0.8,2.7-0.8,3.6v2.5c0,0.3,0.1,0.5,0.3,0.7c0.2,0.2,0.5,0.2,1,0.2h1.5v0.9h-7.3v-0.9h1.2c0.4,0,0.7-0.1,0.9-0.2
			c0.2-0.2,0.3-0.3,0.3-0.6v-7.5c0-0.6-0.1-1-0.4-1.2c-0.2-0.3-0.6-0.4-1-0.4h-1V151.6z"/>
		<path class="st0" d="M136.7,162l0.5,0.7c-0.6,0.6-1.3,0.9-2,0.9c-0.6,0-1-0.2-1.4-0.5c-0.4-0.3-0.7-0.9-1-1.6
			c-0.8,0.8-1.5,1.4-2.1,1.7c-0.6,0.3-1.3,0.4-2.2,0.4c-1.2,0-2.1-0.3-2.7-0.8c-0.6-0.5-0.9-1.2-0.9-2c0-1.2,0.7-2.2,2.1-3
			c1.4-0.8,3.3-1.3,5.7-1.6v-1.8c0-0.6-0.3-1.2-0.8-1.6c-0.5-0.4-1.2-0.7-1.9-0.7c-0.7,0-1.4,0.1-1.9,0.4c-0.4,0.2-0.6,0.4-0.6,0.7
			c0,0.1,0.1,0.3,0.3,0.6c0.2,0.3,0.4,0.6,0.4,0.9c0,0.4-0.1,0.7-0.4,0.9c-0.2,0.2-0.6,0.4-1,0.4c-0.4,0-0.8-0.1-1-0.4
			c-0.3-0.3-0.4-0.6-0.4-1.1c0-0.8,0.5-1.6,1.4-2.3c0.9-0.7,2.1-1,3.7-1c1.4,0,2.5,0.3,3.2,0.9c0.7,0.6,1.1,1.3,1.1,2.2v6.4
			c0,0.6,0.1,1,0.3,1.3c0.2,0.3,0.4,0.4,0.7,0.4C136,162.4,136.3,162.3,136.7,162z M132.6,157.1c-2.1,0.3-3.6,0.8-4.5,1.4
			c-0.7,0.5-1,1.2-1,2.1c0,0.6,0.2,1.1,0.5,1.5c0.3,0.4,0.8,0.5,1.3,0.5c1,0,1.8-0.4,2.6-1.1c0.7-0.7,1.1-1.7,1.1-2.8V157.1z"/>
		<path class="st0" d="M137.5,151.6l3.9-0.2c0.2,0.7,0.3,1.6,0.4,2.6c0.5-0.9,1.1-1.5,1.9-1.9c0.7-0.4,1.5-0.6,2.4-0.6
			c0.8,0,1.4,0.2,2,0.5s0.9,0.8,1.3,1.4c0.3,0.7,0.5,1.4,0.5,2.2v5.7c0,0.4,0.1,0.7,0.3,0.9c0.2,0.2,0.5,0.3,1,0.3h0.8v0.9h-6.2
			v-0.9h0.6c0.6,0,0.9-0.1,1.2-0.3c0.2-0.2,0.3-0.4,0.3-0.8v-5c0-1.1-0.2-1.9-0.5-2.4c-0.5-0.8-1.2-1.1-2.1-1.1
			c-0.9,0-1.7,0.4-2.4,1.1c-0.6,0.8-0.9,1.7-0.9,3v4.3c0,0.4,0.1,0.7,0.3,0.9c0.2,0.2,0.5,0.3,1,0.3h0.8v0.9h-6.2v-0.9h0.8
			c0.4,0,0.7-0.1,0.9-0.3c0.2-0.2,0.3-0.4,0.3-0.6V154c0-0.5-0.1-0.9-0.4-1.1c-0.3-0.3-0.7-0.4-1.2-0.4h-0.6V151.6z"/>
		<path class="st0" d="M155.2,146.8h0.8v4.8h3.8v1.2h-3.8v7.5c0,0.7,0.2,1.1,0.5,1.5c0.3,0.3,0.7,0.5,1.2,0.5c0.6,0,1.1-0.3,1.5-0.8
			s0.6-1.4,0.7-2.6h0.8c-0.1,1.6-0.4,2.7-1.1,3.5c-0.7,0.8-1.5,1.1-2.6,1.1c-1,0-1.7-0.3-2.3-0.8c-0.5-0.5-0.8-1.2-0.8-2.1v-7.9h-2
			v-0.9c0.9-0.2,1.6-0.5,2.1-1.2C154.8,149.8,155.2,148.5,155.2,146.8z"/>
		<path class="st0" d="M166.6,151.3c1.6,0,2.9,0.6,4,1.7c1.1,1.1,1.6,2.6,1.6,4.5c0,1.3-0.2,2.4-0.7,3.3c-0.5,0.9-1.2,1.6-2.1,2.1
			c-0.9,0.5-1.8,0.8-2.9,0.8c-1.5,0-2.8-0.6-3.9-1.7c-1.1-1.2-1.6-2.6-1.6-4.5c0-1.8,0.5-3.3,1.6-4.5
			C163.8,151.8,165.1,151.3,166.6,151.3z M166.6,152.2c-0.9,0-1.7,0.4-2.3,1.3c-0.6,0.8-0.9,2.2-0.9,4c0,1.9,0.3,3.2,0.9,4.1
			c0.6,0.9,1.4,1.3,2.3,1.3c1,0,1.8-0.4,2.4-1.3c0.6-0.9,0.9-2.3,0.9-4.2c0-1.8-0.3-3.1-0.9-3.9
			C168.4,152.6,167.6,152.2,166.6,152.2z"/>
		<path class="st0" d="M172.9,151.6l3.9-0.2c0.2,0.7,0.3,1.6,0.4,2.6c0.5-0.9,1.1-1.5,1.9-1.9c0.7-0.4,1.5-0.6,2.4-0.6
			c0.8,0,1.4,0.2,2,0.5s0.9,0.8,1.3,1.4c0.3,0.7,0.5,1.4,0.5,2.2v5.7c0,0.4,0.1,0.7,0.3,0.9c0.2,0.2,0.5,0.3,1,0.3h0.8v0.9H181v-0.9
			h0.6c0.6,0,0.9-0.1,1.2-0.3c0.2-0.2,0.3-0.4,0.3-0.8v-5c0-1.1-0.2-1.9-0.5-2.4c-0.5-0.8-1.2-1.1-2.1-1.1c-0.9,0-1.7,0.4-2.4,1.1
			c-0.6,0.8-0.9,1.7-0.9,3v4.3c0,0.4,0.1,0.7,0.3,0.9c0.2,0.2,0.5,0.3,1,0.3h0.8v0.9H173v-0.9h0.8c0.4,0,0.7-0.1,0.9-0.3
			c0.2-0.2,0.3-0.4,0.3-0.6V154c0-0.5-0.1-0.9-0.4-1.1c-0.3-0.3-0.7-0.4-1.2-0.4h-0.6V151.6z"/>
	</g>
</g>
</svg>
