<?xml version="1.0" encoding="utf-8"?>
<!-- Generator: Adobe Illustrator 27.4.0, SVG Export Plug-In . SVG Version: 6.00 Build 0)  -->
<svg version="1.1" id="Layer_1" xmlns="http://www.w3.org/2000/svg" xmlns:xlink="http://www.w3.org/1999/xlink" x="0px" y="0px"
	 viewBox="0 0 316.3 44.4" style="enable-background:new 0 0 316.3 44.4;" xml:space="preserve">
<style type="text/css">
	.st0{fill:#6BA43A;}
	.st1{fill:#FFFFFF;}
</style>
<g>
	<path class="st0" d="M307.1,44.5H9.4C4.2,44.5,0,40.3,0,35V9.6c0-5.2,4.2-9.5,9.5-9.5h297.7c5.2,0,9.5,4.2,9.5,9.5V35
		C316.6,40.3,312.3,44.5,307.1,44.5z"/>
	<g>
		<path class="st1" d="M38.1,28.4L34,15.7h2.8l3,9.8h-1.1l2.9-9.8h2.2l2.9,9.8h-1.1l3-9.8h2.8l-4.1,12.7h-2.2l-3-9.8h1.1l-2.9,9.8
			H38.1z"/>
		<path class="st1" d="M54.8,28.4V15.7h2.8v12.7H54.8z M56.9,18.1v-2.4h6.9v2.4H56.9z M56.9,23.1v-2.4h6.3v2.4H56.9z M56.9,28.4
			v-2.4h7v2.4H56.9z"/>
		<path class="st1" d="M67.6,28.4V15.7h2.8v12.7H67.6z M69.8,28.4v-2.2h3c0.5,0,1-0.2,1.3-0.5c0.3-0.3,0.5-0.7,0.5-1.2
			c0-0.3-0.1-0.6-0.2-0.8s-0.3-0.5-0.6-0.6c-0.3-0.1-0.6-0.2-0.9-0.2h-3v-2.2h2.8c0.5,0,0.8-0.1,1.1-0.3c0.3-0.2,0.4-0.6,0.4-1.1
			c0-0.5-0.1-0.8-0.4-1c-0.3-0.2-0.7-0.4-1.1-0.4h-2.8v-2.2h3.3c0.8,0,1.5,0.2,2.1,0.5c0.6,0.3,1,0.7,1.3,1.2s0.4,1.1,0.4,1.7
			c0,0.8-0.3,1.5-0.8,2s-1.2,0.9-2.2,1.1l0.1-1c1.1,0.2,1.9,0.6,2.5,1.2c0.6,0.6,0.9,1.4,0.9,2.3c0,0.7-0.2,1.3-0.5,1.9
			c-0.3,0.6-0.8,1-1.5,1.3c-0.6,0.3-1.4,0.5-2.3,0.5H69.8z"/>
		<path class="st1" d="M84.5,28.6c-1.1,0-2-0.2-2.7-0.5s-1.4-0.9-2-1.5l1.8-1.8c0.4,0.5,0.9,0.8,1.4,1.1s1.1,0.4,1.7,0.4
			c0.6,0,1-0.1,1.4-0.3c0.3-0.2,0.5-0.5,0.5-0.9c0-0.3-0.1-0.6-0.3-0.8c-0.2-0.2-0.5-0.4-0.9-0.6c-0.4-0.2-0.8-0.3-1.2-0.4
			c-0.4-0.1-0.8-0.3-1.3-0.5c-0.4-0.2-0.8-0.4-1.2-0.7s-0.6-0.6-0.9-1.1c-0.2-0.4-0.3-1-0.3-1.6c0-0.8,0.2-1.5,0.6-2
			c0.4-0.6,0.9-1,1.6-1.3s1.5-0.4,2.3-0.4c0.9,0,1.7,0.2,2.4,0.5c0.7,0.3,1.3,0.7,1.8,1.3l-1.9,1.9c-0.4-0.4-0.8-0.7-1.2-0.9
			c-0.4-0.2-0.8-0.3-1.3-0.3c-0.5,0-0.9,0.1-1.2,0.3c-0.3,0.2-0.4,0.5-0.4,0.8c0,0.3,0.1,0.6,0.3,0.8c0.2,0.2,0.5,0.4,0.9,0.5
			c0.4,0.1,0.7,0.3,1.2,0.4c0.4,0.1,0.9,0.3,1.3,0.5c0.4,0.2,0.8,0.4,1.2,0.7c0.3,0.3,0.6,0.7,0.9,1.1c0.2,0.4,0.3,1,0.3,1.7
			c0,1.2-0.4,2.2-1.3,2.9C87.3,28.2,86.1,28.6,84.5,28.6z"/>
		<path class="st1" d="M93,28.4V15.7h2.8v12.7H93z"/>
		<path class="st1" d="M99.2,18.2v-2.5H110v2.5H99.2z M103.2,28.4V15.8h2.9v12.5H103.2z"/>
		<path class="st1" d="M113.4,28.4V15.7h2.8v12.7H113.4z M115.6,18.1v-2.4h6.9v2.4H115.6z M115.6,23.1v-2.4h6.3v2.4H115.6z
			 M115.6,28.4v-2.4h7v2.4H115.6z"/>
		<path class="st1" d="M137.5,28.6c-0.9,0-1.8-0.2-2.6-0.5s-1.5-0.8-2.1-1.4c-0.6-0.6-1.1-1.3-1.4-2.1c-0.3-0.8-0.5-1.7-0.5-2.6
			c0-0.9,0.2-1.8,0.5-2.6c0.3-0.8,0.8-1.5,1.4-2.1c0.6-0.6,1.3-1,2.1-1.4c0.8-0.3,1.7-0.5,2.6-0.5c1,0,1.9,0.2,2.7,0.5
			c0.8,0.3,1.5,0.8,2.1,1.3l-1.9,1.9c-0.3-0.4-0.7-0.6-1.2-0.8s-1-0.3-1.6-0.3c-0.6,0-1.1,0.1-1.5,0.3c-0.5,0.2-0.9,0.5-1.2,0.8
			c-0.3,0.3-0.6,0.8-0.8,1.3c-0.2,0.5-0.3,1-0.3,1.6c0,0.6,0.1,1.1,0.3,1.6c0.2,0.5,0.4,0.9,0.8,1.3c0.3,0.4,0.7,0.6,1.2,0.8
			c0.5,0.2,1,0.3,1.5,0.3c0.6,0,1.2-0.1,1.7-0.3c0.5-0.2,0.9-0.5,1.2-0.9l1.9,1.9c-0.6,0.6-1.3,1-2.1,1.3
			C139.5,28.4,138.5,28.6,137.5,28.6z"/>
		<path class="st1" d="M151.3,28.6c-1,0-1.8-0.2-2.7-0.5c-0.8-0.3-1.5-0.8-2.1-1.4c-0.6-0.6-1.1-1.3-1.4-2.1
			c-0.3-0.8-0.5-1.7-0.5-2.6c0-0.9,0.2-1.8,0.5-2.6s0.8-1.5,1.4-2.1s1.3-1.1,2.1-1.4s1.7-0.5,2.7-0.5c0.9,0,1.8,0.2,2.6,0.5
			s1.5,0.8,2.1,1.4c0.6,0.6,1.1,1.3,1.4,2.1c0.3,0.8,0.5,1.7,0.5,2.6c0,0.9-0.2,1.8-0.5,2.6c-0.3,0.8-0.8,1.5-1.4,2.1
			s-1.3,1.1-2.1,1.4C153.1,28.4,152.2,28.6,151.3,28.6z M151.2,26c0.8,0,1.4-0.2,2-0.5s1-0.8,1.3-1.4c0.3-0.6,0.5-1.3,0.5-2.1
			c0-0.6-0.1-1.1-0.3-1.6c-0.2-0.5-0.4-0.9-0.8-1.3c-0.3-0.4-0.7-0.6-1.2-0.8c-0.5-0.2-1-0.3-1.5-0.3c-0.8,0-1.4,0.2-2,0.5
			c-0.6,0.3-1,0.8-1.3,1.4c-0.3,0.6-0.5,1.3-0.5,2.1c0,0.6,0.1,1.1,0.3,1.6c0.2,0.5,0.4,0.9,0.8,1.3c0.3,0.4,0.7,0.6,1.2,0.8
			C150.1,25.9,150.7,26,151.2,26z"/>
		<path class="st1" d="M161.5,28.4V15.7h2.1l5,7.8h-1.1l5-7.8h2.1v12.7h-2.8v-7.9l0.5,0.1l-3.2,5.1h-1.9l-3.2-5.1l0.5-0.1v7.9H161.5
			z"/>
		<path class="st1" d="M178.7,28.4V15.7h2.8v12.7H178.7z"/>
		<path class="st1" d="M185.8,28.4V15.7h2l0.8,2.5v10.2H185.8z M194.6,28.4l-7.5-9.6l0.7-3.1l7.5,9.6L194.6,28.4z M194.6,28.4
			l-0.8-2.5V15.7h2.9v12.7H194.6z"/>
		<path class="st1" d="M206.9,28.6c-0.9,0-1.8-0.2-2.6-0.5c-0.8-0.3-1.5-0.8-2.1-1.4c-0.6-0.6-1.1-1.3-1.4-2.1
			c-0.3-0.8-0.5-1.6-0.5-2.6c0-0.9,0.2-1.8,0.5-2.6c0.3-0.8,0.8-1.5,1.5-2.1c0.6-0.6,1.3-1.1,2.2-1.4s1.7-0.5,2.7-0.5
			c1.1,0,2.1,0.2,3,0.6c0.9,0.4,1.6,1,2.2,1.6l-1.9,1.9c-0.4-0.5-0.9-0.9-1.4-1.2s-1.2-0.4-1.9-0.4c-0.7,0-1.4,0.2-2,0.5
			s-1,0.8-1.4,1.4c-0.3,0.6-0.5,1.3-0.5,2.1c0,0.8,0.2,1.5,0.5,2.1c0.3,0.6,0.8,1.1,1.3,1.4c0.6,0.3,1.2,0.5,1.9,0.5
			c0.7,0,1.4-0.1,1.9-0.4c0.5-0.3,0.9-0.7,1.2-1.2c0.3-0.5,0.4-1.2,0.4-1.9l1.9,1.3l-5.7-0.1v-2.4h6.7v0.4c0,1.5-0.3,2.8-0.8,3.8
			s-1.3,1.8-2.3,2.4C209.3,28.3,208.1,28.6,206.9,28.6z"/>
		<path class="st1" d="M225.9,28.6c-1.1,0-2-0.2-2.7-0.5s-1.4-0.9-2-1.5l1.8-1.8c0.4,0.5,0.9,0.8,1.4,1.1c0.5,0.3,1.1,0.4,1.7,0.4
			c0.6,0,1-0.1,1.4-0.3c0.3-0.2,0.5-0.5,0.5-0.9c0-0.3-0.1-0.6-0.3-0.8c-0.2-0.2-0.5-0.4-0.9-0.6s-0.8-0.3-1.2-0.4
			c-0.4-0.1-0.8-0.3-1.3-0.5c-0.4-0.2-0.8-0.4-1.2-0.7c-0.4-0.3-0.6-0.6-0.9-1.1c-0.2-0.4-0.3-1-0.3-1.6c0-0.8,0.2-1.5,0.6-2
			c0.4-0.6,0.9-1,1.6-1.3s1.5-0.4,2.3-0.4c0.9,0,1.7,0.2,2.4,0.5c0.7,0.3,1.3,0.7,1.8,1.3l-1.9,1.9c-0.4-0.4-0.8-0.7-1.2-0.9
			c-0.4-0.2-0.8-0.3-1.3-0.3c-0.5,0-0.9,0.1-1.2,0.3c-0.3,0.2-0.4,0.5-0.4,0.8c0,0.3,0.1,0.6,0.3,0.8c0.2,0.2,0.5,0.4,0.9,0.5
			c0.4,0.1,0.7,0.3,1.2,0.4c0.4,0.1,0.9,0.3,1.3,0.5c0.4,0.2,0.8,0.4,1.2,0.7c0.3,0.3,0.6,0.7,0.9,1.1c0.2,0.4,0.3,1,0.3,1.7
			c0,1.2-0.4,2.2-1.3,2.9C228.6,28.2,227.4,28.6,225.9,28.6z"/>
		<path class="st1" d="M240.5,28.6c-1,0-1.8-0.2-2.7-0.5s-1.5-0.8-2.1-1.4c-0.6-0.6-1.1-1.3-1.4-2.1c-0.3-0.8-0.5-1.7-0.5-2.6
			c0-0.9,0.2-1.8,0.5-2.6s0.8-1.5,1.4-2.1s1.3-1.1,2.1-1.4s1.7-0.5,2.7-0.5c0.9,0,1.8,0.2,2.6,0.5c0.8,0.3,1.5,0.8,2.1,1.4
			c0.6,0.6,1.1,1.3,1.4,2.1c0.3,0.8,0.5,1.7,0.5,2.6c0,0.9-0.2,1.8-0.5,2.6s-0.8,1.5-1.4,2.1c-0.6,0.6-1.3,1.1-2.1,1.4
			S241.5,28.6,240.5,28.6z M240.5,26c0.8,0,1.4-0.2,2-0.5c0.6-0.3,1-0.8,1.3-1.4c0.3-0.6,0.5-1.3,0.5-2.1c0-0.6-0.1-1.1-0.3-1.6
			c-0.2-0.5-0.4-0.9-0.8-1.3c-0.3-0.4-0.7-0.6-1.2-0.8c-0.5-0.2-1-0.3-1.5-0.3c-0.8,0-1.4,0.2-2,0.5c-0.6,0.3-1,0.8-1.3,1.4
			c-0.3,0.6-0.5,1.3-0.5,2.1c0,0.6,0.1,1.1,0.3,1.6s0.4,0.9,0.8,1.3c0.3,0.4,0.7,0.6,1.2,0.8C239.4,25.9,239.9,26,240.5,26z"/>
		<path class="st1" d="M257,28.6c-1,0-1.8-0.2-2.7-0.5s-1.5-0.8-2.1-1.4c-0.6-0.6-1.1-1.3-1.4-2.1c-0.3-0.8-0.5-1.7-0.5-2.6
			c0-0.9,0.2-1.8,0.5-2.6s0.8-1.5,1.4-2.1s1.3-1.1,2.1-1.4s1.7-0.5,2.7-0.5c0.9,0,1.8,0.2,2.6,0.5c0.8,0.3,1.5,0.8,2.1,1.4
			c0.6,0.6,1.1,1.3,1.4,2.1c0.3,0.8,0.5,1.7,0.5,2.6c0,0.9-0.2,1.8-0.5,2.6s-0.8,1.5-1.4,2.1c-0.6,0.6-1.3,1.1-2.1,1.4
			S257.9,28.6,257,28.6z M257,26c0.8,0,1.4-0.2,2-0.5c0.6-0.3,1-0.8,1.3-1.4c0.3-0.6,0.5-1.3,0.5-2.1c0-0.6-0.1-1.1-0.3-1.6
			c-0.2-0.5-0.4-0.9-0.8-1.3c-0.3-0.4-0.7-0.6-1.2-0.8c-0.5-0.2-1-0.3-1.5-0.3c-0.8,0-1.4,0.2-2,0.5c-0.6,0.3-1,0.8-1.3,1.4
			c-0.3,0.6-0.5,1.3-0.5,2.1c0,0.6,0.1,1.1,0.3,1.6s0.4,0.9,0.8,1.3c0.3,0.4,0.7,0.6,1.2,0.8C255.9,25.9,256.4,26,257,26z"/>
		<path class="st1" d="M267.2,28.4V15.7h2l0.8,2.5v10.2H267.2z M276,28.4l-7.5-9.6l0.7-3.1l7.5,9.6L276,28.4z M276,28.4l-0.8-2.5
			V15.7h2.9v12.7H276z"/>
	</g>
</g>
</svg>
